<svg xmlns="http://www.w3.org/2000/svg" width="960" height="540" viewBox="0 0 960 540" shape-rendering="crispEdges"><defs><pattern id="grass" width="32" height="32" patternUnits="userSpaceOnUse"><rect width="32" height="32" fill="#607d54"/><rect x="5" y="7" width="3" height="3" fill="#7f9b63"/><rect x="20" y="17" width="2" height="4" fill="#496c4b"/><rect x="12" y="25" width="4" height="2" fill="#88a768"/></pattern><pattern id="water" width="48" height="28" patternUnits="userSpaceOnUse"><rect width="48" height="28" fill="#16678e"/><rect x="5" y="7" width="18" height="3" fill="#4db1c7"/><rect x="30" y="18" width="12" height="2" fill="#76c9d3"/><rect x="24" y="2" width="7" height="2" fill="#2c8eaa"/></pattern></defs><rect width="960" height="540" fill="url(#grass)"/><path d="M0 0h420l-20 75-70 20-80-40-70 35-90-25z" fill="#294a39"/><path d="M0 405l110-45 120 30 100-50 105 30 30 170H0z" fill="#31533e"/><path d="M680 0c-40 85 30 135-35 220-60 78 45 130-10 320h325V0z" fill="#0e3e59" stroke="#102f3d" stroke-width="12"/><path d="M690 0c-28 80 32 130-34 218-55 75 46 135-7 322h311V0z" fill="url(#water)"/><path d="M250 540c70-90 85-160 150-235 35-40 40-85 105-135l125-70 35 48-130 85c-52 36-58 80-86 116-57 72-70 135-128 191z" fill="#8e704f"/><path d="M260 540c70-90 86-160 151-235 36-40 41-84 105-135l125-70 19 26-124 87c-55 38-60 83-88 119-54 69-67 131-124 208z" fill="#b49468"/><g stroke="#2d2828" stroke-width="5"><path d="M65 165h110v82H65z" fill="#855540"/><path d="M52 168l68-62 78 62z" fill="#4c3940"/><rect x="111" y="198" width="22" height="49" fill="#4d3430"/><rect x="78" y="185" width="19" height="18" fill="#f4c45d"/><rect x="145" y="185" width="19" height="18" fill="#f4c45d"/><path d="M185 120h125v91H185z" fill="#8f5a42"/><path d="M172 123l75-65 88 65z" fill="#40333a"/><rect x="238" y="166" width="25" height="45" fill="#4d3430"/><rect x="201" y="145" width="20" height="19" fill="#ffd170"/><rect x="278" y="145" width="20" height="19" fill="#ffd170"/><path d="M300 96h100v74H300z" fill="#81503f"/><path d="M288 100l60-54 70 54z" fill="#46353c"/><rect x="340" y="129" width="20" height="41" fill="#4d3430"/><rect x="315" y="118" width="16" height="16" fill="#f2c25f"/><rect x="370" y="118" width="16" height="16" fill="#f2c25f"/></g><rect x="35" y="275" width="260" height="145" fill="#34563c" stroke="#2c3d31" stroke-width="8"/><g fill="#a7c765"><rect x="58" y="300" width="12" height="7"/><rect x="92" y="334" width="12" height="7"/><rect x="135" y="300" width="12" height="7"/><rect x="176" y="354" width="12" height="7"/><rect x="218" y="316" width="12" height="7"/><rect x="258" y="370" width="12" height="7"/></g><g fill="#df9a9e"><rect x="75" y="370" width="6" height="6"/><rect x="154" y="320" width="6" height="6"/><rect x="240" y="340" width="6" height="6"/></g><g stroke="#6e5039" stroke-width="7"><path d="M38 285h255M38 350h255M55 275v145M95 275v145M135 275v145M175 275v145M215 275v145M255 275v145"/></g><g stroke="#2f2927" stroke-width="6"><path d="M575 218h190v102H575z" fill="#68462f"/><path d="M590 230h160v73H590z" fill="#946142"/></g><g fill="#b0784e"><rect x="600" y="235" width="17" height="62"/><rect x="627" y="235" width="17" height="62"/><rect x="654" y="235" width="17" height="62"/><rect x="681" y="235" width="17" height="62"/><rect x="708" y="235" width="17" height="62"/><rect x="735" y="235" width="17" height="62"/></g><g fill="#49342c"><rect x="575" y="207" width="190" height="9"/><rect x="575" y="310" width="190" height="9"/><rect x="590" y="198" width="8" height="35"/><rect x="748" y="198" width="8" height="35"/></g><g stroke="#352a27" stroke-width="6"><rect x="410" y="360" width="110" height="115" fill="#69462f"/><rect x="420" y="370" width="90" height="95" fill="#8f5e3e"/></g><g fill="#b57a4c"><rect x="425" y="380" width="80" height="8"/><rect x="425" y="405" width="80" height="8"/><rect x="425" y="430" width="80" height="8"/><rect x="425" y="455" width="80" height="8"/></g><g stroke="#25362d" stroke-width="4"><path d="M20 80h25v72H20z" fill="#594234"/><path d="M-5 105l35-65 38 65-18-5 22 30-32-6 5 35H5l5-35-30 6 22-30z" fill="#31563f"/><path d="M455 25h26v78h-26z" fill="#5a4134"/><path d="M420 65l48-82 48 82-22-7 28 35-39-9 6 43h-42l6-43-39 9 28-35z" fill="#345d42"/><path d="M520 55h24v78h-24z" fill="#5b4233"/><path d="M488 90l44-70 44 70-20-6 25 31-35-7 5 40h-38l5-40-35 7 25-31z" fill="#416a48"/></g><g stroke="#3e2e28" stroke-width="4"><path d="M310 230h7v46h-7z" fill="#60452f"/><rect x="300" y="218" width="27" height="22" fill="#c18443"/><rect x="305" y="222" width="17" height="14" fill="#ffd978"/><path d="M545 182h7v50h-7z" fill="#60452f"/><rect x="535" y="170" width="27" height="22" fill="#c18443"/><rect x="540" y="174" width="17" height="14" fill="#ffd978"/><path d="M795 270h7v50h-7z" fill="#60452f"/><rect x="785" y="258" width="27" height="22" fill="#c18443"/><rect x="790" y="262" width="17" height="14" fill="#ffd978"/></g><g><rect x="320" y="350" width="55" height="12" fill="#45312b"/><path d="M330 350q15-70 30 0q15-55 25 0z" fill="#ff9f37"/><path d="M342 350q10-40 18 0q8-32 14 0z" fill="#ffe67b"/></g><path d="M845 410h25v105h-25z" fill="#5a3e32"/><g fill="#b86696"><circle cx="850" cy="405" r="55"/><circle cx="900" cy="430" r="55"/><circle cx="830" cy="455" r="50"/><circle cx="875" cy="365" r="48"/></g><g fill="#e18bb4"><circle cx="840" cy="390" r="25"/><circle cx="890" cy="420" r="27"/><circle cx="825" cy="445" r="22"/></g><g fill="#68716e"><rect x="30" y="470" width="22" height="15"/><rect x="75" y="490" width="18" height="13"/><rect x="320" y="455" width="24" height="16"/><rect x="350" y="485" width="16" height="12"/></g><g fill="#e8b66b"><rect x="25" y="250" width="6" height="6"/><rect x="320" y="180" width="6" height="6"/><rect x="480" y="260" width="6" height="6"/><rect x="530" y="330" width="6" height="6"/></g><g fill="#d88e9f"><rect x="46" y="225" width="7" height="7"/><rect x="285" y="205" width="7" height="7"/><rect x="450" y="305" width="7" height="7"/><rect x="550" y="295" width="7" height="7"/></g><g fill="#5b8c4d"><ellipse cx="820" cy="400" rx="26" ry="12"/><ellipse cx="875" cy="450" rx="30" ry="13"/><ellipse cx="760" cy="460" rx="24" ry="11"/></g><g fill="#e9a6b0"><rect x="818" y="397" width="6" height="6"/><rect x="873" y="447" width="6" height="6"/></g><rect width="960" height="540" fill="none" stroke="#1b2521" stroke-width="10"/></svg>