<svg xmlns="http://www.w3.org/2000/svg" width="128" height="128" viewBox="0 0 128 128" shape-rendering="crispEdges">
<g fill="#6f5138" stroke="#d0ad68" stroke-width="2">
<g transform="translate(0,0)"><rect x="23" y="12" width="2" height="18"/><path d="M19 14L25 10 29 14 26 18 22 18Z" fill="#aeb0a5"/></g>
<g transform="translate(32,0)"><rect x="23" y="12" width="2" height="18"/><path d="M19 14L25 10 29 14 26 18 22 18Z" fill="#aeb0a5"/></g>
<g transform="translate(64,0)"><rect x="23" y="12" width="2" height="18"/><path d="M19 14L25 10 29 14 26 18 22 18Z" fill="#aeb0a5"/></g>
<g transform="translate(96,0)"><rect x="23" y="12" width="2" height="18"/><path d="M19 14L25 10 29 14 26 18 22 18Z" fill="#aeb0a5"/></g>
<g transform="translate(0,32)"><rect x="5" y="13" width="18" height="2"/><rect x="20" y="10" width="3" height="8" fill="#aeb0a5"/></g>
<g transform="translate(32,32)"><rect x="5" y="13" width="18" height="2"/><rect x="20" y="10" width="3" height="8" fill="#aeb0a5"/></g>
<g transform="translate(64,32)"><rect x="5" y="13" width="18" height="2"/><rect x="20" y="10" width="3" height="8" fill="#aeb0a5"/></g>
<g transform="translate(96,32)"><rect x="5" y="13" width="18" height="2"/><rect x="20" y="10" width="3" height="8" fill="#aeb0a5"/></g>
<g transform="translate(0,64)"><rect x="21" y="4" width="3" height="22"/><rect x="17" y="3" width="11" height="3" fill="#8b6544"/></g>
<g transform="translate(32,64)"><rect x="21" y="4" width="3" height="22"/><rect x="17" y="3" width="11" height="3" fill="#8b6544"/></g>
<g transform="translate(64,64)"><rect x="21" y="4" width="3" height="22"/><rect x="17" y="3" width="11" height="3" fill="#8b6544"/></g>
<g transform="translate(96,64)"><rect x="21" y="4" width="3" height="22"/><rect x="17" y="3" width="11" height="3" fill="#8b6544"/></g>
<g transform="translate(0,96)"><rect x="7" y="8" width="3" height="18"/><rect x="4" y="6" width="9" height="3" fill="#aeb0a5"/></g>
<g transform="translate(32,96)"><rect x="7" y="8" width="3" height="18"/><rect x="4" y="6" width="9" height="3" fill="#aeb0a5"/></g>
<g transform="translate(64,96)"><rect x="7" y="8" width="3" height="18"/><rect x="4" y="6" width="9" height="3" fill="#aeb0a5"/></g>
<g transform="translate(96,96)"><rect x="7" y="8" width="3" height="18"/><rect x="4" y="6" width="9" height="3" fill="#aeb0a5"/></g>
</g></svg>