<svg xmlns="http://www.w3.org/2000/svg" width="128" height="128" viewBox="0 0 128 128" shape-rendering="crispEdges"><g><g transform="translate(0,0)"><path d="M11 10h10v9l-2 5h-6l-2-5z" fill="#d8aa81" stroke="#6d4a3d" stroke-width="1"/><rect x="12" y="13" width="2" height="2" fill="#342b2a"/><rect x="18" y="13" width="2" height="2" fill="#342b2a"/><rect x="15" y="16" width="2" height="1" fill="#a56d59"/><rect x="14" y="19" width="5" height="2" fill="#b87962"/><rect x="12" y="11" width="3" height="1" fill="#e9bd91"/><rect x="18" y="11" width="2" height="1" fill="#e9bd91"/></g><g transform="translate(32,0)"><path d="M11 10h10v9l-2 5h-6l-2-5z" fill="#d8aa81" stroke="#6d4a3d" stroke-width="1"/><rect x="13" y="13" width="2" height="2" fill="#342b2a"/><rect x="19" y="13" width="2" height="2" fill="#342b2a"/><rect x="16" y="16" width="2" height="1" fill="#a56d59"/><rect x="15" y="19" width="5" height="2" fill="#b87962"/></g><g transform="translate(64,0)"><path d="M11 11h10v9l-2 5h-6l-2-5z" fill="#d8aa81" stroke="#6d4a3d" stroke-width="1"/><rect x="12" y="14" width="2" height="2" fill="#342b2a"/><rect x="18" y="14" width="2" height="2" fill="#342b2a"/><rect x="15" y="17" width="2" height="1" fill="#a56d59"/><rect x="14" y="20" width="5" height="2" fill="#b87962"/><rect x="12" y="12" width="3" height="1" fill="#e9bd91"/><rect x="18" y="12" width="2" height="1" fill="#e9bd91"/></g><g transform="translate(96,0)"><path d="M11 10h10v9l-2 5h-6l-2-5z" fill="#d8aa81" stroke="#6d4a3d" stroke-width="1"/><rect x="11" y="13" width="2" height="2" fill="#342b2a"/><rect x="17" y="13" width="2" height="2" fill="#342b2a"/><rect x="14" y="16" width="2" height="1" fill="#a56d59"/><rect x="13" y="19" width="5" height="2" fill="#b87962"/></g><g transform="translate(0,32)"><path d="M11 10h10v9l-2 5h-6l-2-5z" fill="#d8aa81" stroke="#6d4a3d" stroke-width="1"/><rect x="12" y="13" width="2" height="2" fill="#342b2a"/><rect x="18" y="13" width="2" height="2" fill="#342b2a"/><rect x="15" y="16" width="2" height="1" fill="#a56d59"/><rect x="14" y="19" width="5" height="2" fill="#b87962"/><rect x="12" y="11" width="3" height="1" fill="#e9bd91"/><rect x="18" y="11" width="2" height="1" fill="#e9bd91"/></g><g transform="translate(32,32)"><path d="M11 10h10v9l-2 5h-6l-2-5z" fill="#d8aa81" stroke="#6d4a3d" stroke-width="1"/><rect x="13" y="13" width="2" height="2" fill="#342b2a"/><rect x="19" y="13" width="2" height="2" fill="#342b2a"/><rect x="16" y="16" width="2" height="1" fill="#a56d59"/><rect x="15" y="19" width="5" height="2" fill="#b87962"/></g><g transform="translate(64,32)"><path d="M11 10h10v9l-2 5h-6l-2-5z" fill="#d8aa81" stroke="#6d4a3d" stroke-width="1"/><rect x="12" y="13" width="2" height="2" fill="#342b2a"/><rect x="18" y="13" width="2" height="2" fill="#342b2a"/><rect x="15" y="16" width="2" height="1" fill="#a56d59"/><rect x="14" y="19" width="5" height="2" fill="#b87962"/><rect x="12" y="11" width="3" height="1" fill="#e9bd91"/><rect x="18" y="11" width="2" height="1" fill="#e9bd91"/></g><g transform="translate(96,32)"><path d="M11 10h10v9l-2 5h-6l-2-5z" fill="#d8aa81" stroke="#6d4a3d" stroke-width="1"/><rect x="11" y="13" width="2" height="2" fill="#342b2a"/><rect x="17" y="13" width="2" height="2" fill="#342b2a"/><rect x="14" y="16" width="2" height="1" fill="#a56d59"/><rect x="13" y="19" width="5" height="2" fill="#b87962"/></g><g transform="translate(0,64)"><path d="M11 10h10v9l-2 5h-6l-2-5z" fill="#d8aa81" stroke="#6d4a3d" stroke-width="1"/><rect x="12" y="13" width="2" height="2" fill="#342b2a"/><rect x="18" y="13" width="2" height="2" fill="#342b2a"/><rect x="15" y="16" width="2" height="1" fill="#a56d59"/><rect x="14" y="19" width="5" height="2" fill="#b87962"/><rect x="12" y="11" width="3" height="1" fill="#e9bd91"/><rect x="18" y="11" width="2" height="1" fill="#e9bd91"/></g><g transform="translate(32,64)"><path d="M11 10h10v9l-2 5h-6l-2-5z" fill="#d8aa81" stroke="#6d4a3d" stroke-width="1"/><rect x="13" y="13" width="2" height="2" fill="#342b2a"/><rect x="19" y="13" width="2" height="2" fill="#342b2a"/><rect x="16" y="16" width="2" height="1" fill="#a56d59"/><rect x="15" y="19" width="5" height="2" fill="#b87962"/></g><g transform="translate(64,64)"><path d="M11 11h10v9l-2 5h-6l-2-5z" fill="#d8aa81" stroke="#6d4a3d" stroke-width="1"/><rect x="12" y="14" width="2" height="2" fill="#342b2a"/><rect x="18" y="14" width="2" height="2" fill="#342b2a"/><rect x="15" y="17" width="2" height="1" fill="#a56d59"/><rect x="14" y="20" width="5" height="2" fill="#b87962"/><rect x="12" y="12" width="3" height="1" fill="#e9bd91"/><rect x="18" y="12" width="2" height="1" fill="#e9bd91"/></g><g transform="translate(96,64)"><path d="M11 10h10v9l-2 5h-6l-2-5z" fill="#d8aa81" stroke="#6d4a3d" stroke-width="1"/><rect x="11" y="13" width="2" height="2" fill="#342b2a"/><rect x="17" y="13" width="2" height="2" fill="#342b2a"/><rect x="14" y="16" width="2" height="1" fill="#a56d59"/><rect x="13" y="19" width="5" height="2" fill="#b87962"/></g><g transform="translate(0,96)"><path d="M11 10h10v9l-2 5h-6l-2-5z" fill="#d8aa81" stroke="#6d4a3d" stroke-width="1"/><rect x="12" y="13" width="2" height="2" fill="#342b2a"/><rect x="18" y="13" width="2" height="2" fill="#342b2a"/><rect x="15" y="16" width="2" height="1" fill="#a56d59"/><rect x="14" y="19" width="5" height="2" fill="#b87962"/><rect x="12" y="11" width="3" height="1" fill="#e9bd91"/><rect x="18" y="11" width="2" height="1" fill="#e9bd91"/></g><g transform="translate(32,96)"><path d="M11 10h10v9l-2 5h-6l-2-5z" fill="#d8aa81" stroke="#6d4a3d" stroke-width="1"/><rect x="13" y="13" width="2" height="2" fill="#342b2a"/><rect x="19" y="13" width="2" height="2" fill="#342b2a"/><rect x="16" y="16" width="2" height="1" fill="#a56d59"/><rect x="15" y="19" width="5" height="2" fill="#b87962"/></g><g transform="translate(64,96)"><path d="M11 10h10v9l-2 5h-6l-2-5z" fill="#d8aa81" stroke="#6d4a3d" stroke-width="1"/><rect x="12" y="13" width="2" height="2" fill="#342b2a"/><rect x="18" y="13" width="2" height="2" fill="#342b2a"/><rect x="15" y="16" width="2" height="1" fill="#a56d59"/><rect x="14" y="19" width="5" height="2" fill="#b87962"/><rect x="12" y="11" width="3" height="1" fill="#e9bd91"/><rect x="18" y="11" width="2" height="1" fill="#e9bd91"/></g><g transform="translate(96,96)"><path d="M11 10h10v9l-2 5h-6l-2-5z" fill="#d8aa81" stroke="#6d4a3d" stroke-width="1"/><rect x="11" y="13" width="2" height="2" fill="#342b2a"/><rect x="17" y="13" width="2" height="2" fill="#342b2a"/><rect x="14" y="16" width="2" height="1" fill="#a56d59"/><rect x="13" y="19" width="5" height="2" fill="#b87962"/></g></g></svg>