<svg xmlns="http://www.w3.org/2000/svg" width="128" height="128" viewBox="0 0 128 128" shape-rendering="crispEdges"><g><g transform="translate(0,0)"><path d="M8 4h15l3 5v8h-4v-4h-2v4h-8v-4h-3v4H6v-8z" fill="#3d2d2a" stroke="#241f20" stroke-width="1"/><rect x="10" y="5" width="10" height="3" fill="#62463a"/><rect x="8" y="9" width="4" height="4" fill="#4d3730"/><rect x="21" y="9" width="4" height="4" fill="#4d3730"/></g><g transform="translate(32,0)"><path d="M8 4h15l3 5v8h-4v-4h-2v4h-8v-4h-3v4H6v-8z" fill="#3d2d2a" stroke="#241f20" stroke-width="1"/><rect x="11" y="5" width="10" height="3" fill="#62463a"/><rect x="9" y="9" width="4" height="4" fill="#4d3730"/><rect x="22" y="9" width="4" height="4" fill="#4d3730"/></g><g transform="translate(64,0)"><path d="M8 5h15l3 5v8h-4v-4h-2v4h-8v-4h-3v4H6v-8z" fill="#3d2d2a" stroke="#241f20" stroke-width="1"/><rect x="10" y="6" width="10" height="3" fill="#62463a"/><rect x="8" y="10" width="4" height="4" fill="#4d3730"/><rect x="21" y="10" width="4" height="4" fill="#4d3730"/></g><g transform="translate(96,0)"><path d="M8 4h15l3 5v8h-4v-4h-2v4h-8v-4h-3v4H6v-8z" fill="#3d2d2a" stroke="#241f20" stroke-width="1"/><rect x="9" y="5" width="10" height="3" fill="#62463a"/><rect x="7" y="9" width="4" height="4" fill="#4d3730"/><rect x="20" y="9" width="4" height="4" fill="#4d3730"/></g><g transform="translate(0,32)"><path d="M8 4h15l3 5v8h-4v-4h-2v4h-8v-4h-3v4H6v-8z" fill="#3d2d2a" stroke="#241f20" stroke-width="1"/><rect x="10" y="5" width="10" height="3" fill="#62463a"/><rect x="8" y="9" width="4" height="4" fill="#4d3730"/><rect x="21" y="9" width="4" height="4" fill="#4d3730"/></g><g transform="translate(32,32)"><path d="M8 4h15l3 5v8h-4v-4h-2v4h-8v-4h-3v4H6v-8z" fill="#3d2d2a" stroke="#241f20" stroke-width="1"/><rect x="11" y="5" width="10" height="3" fill="#62463a"/><rect x="9" y="9" width="4" height="4" fill="#4d3730"/><rect x="22" y="9" width="4" height="4" fill="#4d3730"/></g><g transform="translate(64,32)"><path d="M8 4h15l3 5v8h-4v-4h-2v4h-8v-4h-3v4H6v-8z" fill="#3d2d2a" stroke="#241f20" stroke-width="1"/><rect x="10" y="5" width="10" height="3" fill="#62463a"/><rect x="8" y="9" width="4" height="4" fill="#4d3730"/><rect x="21" y="9" width="4" height="4" fill="#4d3730"/></g><g transform="translate(96,32)"><path d="M8 4h15l3 5v8h-4v-4h-2v4h-8v-4h-3v4H6v-8z" fill="#3d2d2a" stroke="#241f20" stroke-width="1"/><rect x="9" y="5" width="10" height="3" fill="#62463a"/><rect x="7" y="9" width="4" height="4" fill="#4d3730"/><rect x="20" y="9" width="4" height="4" fill="#4d3730"/></g><g transform="translate(0,64)"><path d="M8 4h15l3 5v8h-4v-4h-2v4h-8v-4h-3v4H6v-8z" fill="#3d2d2a" stroke="#241f20" stroke-width="1"/><rect x="10" y="5" width="10" height="3" fill="#62463a"/><rect x="8" y="9" width="4" height="4" fill="#4d3730"/><rect x="21" y="9" width="4" height="4" fill="#4d3730"/><rect x="12" y="14" width="8" height="2" fill="#2d2423"/></g><g transform="translate(32,64)"><path d="M8 4h15l3 5v8h-4v-4h-2v4h-8v-4h-3v4H6v-8z" fill="#3d2d2a" stroke="#241f20" stroke-width="1"/><rect x="11" y="5" width="10" height="3" fill="#62463a"/><rect x="9" y="9" width="4" height="4" fill="#4d3730"/><rect x="22" y="9" width="4" height="4" fill="#4d3730"/><rect x="13" y="14" width="8" height="2" fill="#2d2423"/></g><g transform="translate(64,64)"><path d="M8 5h15l3 5v8h-4v-4h-2v4h-8v-4h-3v4H6v-8z" fill="#3d2d2a" stroke="#241f20" stroke-width="1"/><rect x="10" y="6" width="10" height="3" fill="#62463a"/><rect x="8" y="10" width="4" height="4" fill="#4d3730"/><rect x="21" y="10" width="4" height="4" fill="#4d3730"/><rect x="12" y="15" width="8" height="2" fill="#2d2423"/></g><g transform="translate(96,64)"><path d="M8 4h15l3 5v8h-4v-4h-2v4h-8v-4h-3v4H6v-8z" fill="#3d2d2a" stroke="#241f20" stroke-width="1"/><rect x="9" y="5" width="10" height="3" fill="#62463a"/><rect x="7" y="9" width="4" height="4" fill="#4d3730"/><rect x="20" y="9" width="4" height="4" fill="#4d3730"/><rect x="11" y="14" width="8" height="2" fill="#2d2423"/></g><g transform="translate(0,96)"><path d="M8 4h15l3 5v8h-4v-4h-2v4h-8v-4h-3v4H6v-8z" fill="#3d2d2a" stroke="#241f20" stroke-width="1"/><rect x="10" y="5" width="10" height="3" fill="#62463a"/><rect x="8" y="9" width="4" height="4" fill="#4d3730"/><rect x="21" y="9" width="4" height="4" fill="#4d3730"/></g><g transform="translate(32,96)"><path d="M8 4h15l3 5v8h-4v-4h-2v4h-8v-4h-3v4H6v-8z" fill="#3d2d2a" stroke="#241f20" stroke-width="1"/><rect x="11" y="5" width="10" height="3" fill="#62463a"/><rect x="9" y="9" width="4" height="4" fill="#4d3730"/><rect x="22" y="9" width="4" height="4" fill="#4d3730"/></g><g transform="translate(64,96)"><path d="M8 4h15l3 5v8h-4v-4h-2v4h-8v-4h-3v4H6v-8z" fill="#3d2d2a" stroke="#241f20" stroke-width="1"/><rect x="10" y="5" width="10" height="3" fill="#62463a"/><rect x="8" y="9" width="4" height="4" fill="#4d3730"/><rect x="21" y="9" width="4" height="4" fill="#4d3730"/></g><g transform="translate(96,96)"><path d="M8 4h15l3 5v8h-4v-4h-2v4h-8v-4h-3v4H6v-8z" fill="#3d2d2a" stroke="#241f20" stroke-width="1"/><rect x="9" y="5" width="10" height="3" fill="#62463a"/><rect x="7" y="9" width="4" height="4" fill="#4d3730"/><rect x="20" y="9" width="4" height="4" fill="#4d3730"/></g></g></svg>