<svg xmlns="http://www.w3.org/2000/svg" width="128" height="32" viewBox="0 0 128 32" shape-rendering="crispEdges"><g transform="translate(0 0)"><ellipse cx="16" cy="30" rx="10" ry="3" fill="#17231e" opacity=".55"/><rect x="10" y="15" width="12" height="13" rx="3" fill="#76536a"/><rect x="12" y="13" width="8" height="7" rx="3" fill="#c18d78"/><path d="M11 13Q16 4 21 13L20 17H12Z" fill="#a65c4f"/><rect x="9" y="27" width="6" height="4" fill="#3e3029"/><rect x="17" y="27" width="6" height="4" fill="#3e3029"/><rect x="13" y="19" width="6" height="3" fill="#d5b36d"/><rect x="20" y="11" width="3" height="9" fill="#d5b36d"/><circle cx="21.5" cy="10" r="2" fill="#d5b36d"/></g><g transform="translate(32 0)"><ellipse cx="16" cy="30" rx="10" ry="3" fill="#17231e" opacity=".55"/><rect x="10" y="15" width="12" height="13" rx="3" fill="#76536a"/><rect x="12" y="13" width="8" height="7" rx="3" fill="#c18d78"/><path d="M11 13Q16 4 21 13L20 17H12Z" fill="#a65c4f"/><rect x="9" y="27" width="6" height="4" fill="#3e3029"/><rect x="17" y="27" width="6" height="4" fill="#3e3029"/><rect x="13" y="19" width="6" height="3" fill="#d5b36d"/><rect x="20" y="11" width="3" height="9" fill="#d5b36d"/><circle cx="21.5" cy="10" r="2" fill="#d5b36d"/></g><g transform="translate(64 0)"><ellipse cx="16" cy="30" rx="10" ry="3" fill="#17231e" opacity=".55"/><rect x="10" y="15" width="12" height="13" rx="3" fill="#76536a"/><rect x="12" y="13" width="8" height="7" rx="3" fill="#c18d78"/><path d="M11 13Q16 4 21 13L20 17H12Z" fill="#a65c4f"/><rect x="9" y="27" width="6" height="4" fill="#3e3029"/><rect x="17" y="27" width="6" height="4" fill="#3e3029"/><rect x="13" y="19" width="6" height="3" fill="#d5b36d"/><rect x="20" y="11" width="3" height="9" fill="#d5b36d"/><circle cx="21.5" cy="10" r="2" fill="#d5b36d"/></g><g transform="translate(96 0)"><ellipse cx="16" cy="30" rx="10" ry="3" fill="#17231e" opacity=".55"/><rect x="10" y="15" width="12" height="13" rx="3" fill="#76536a"/><rect x="12" y="13" width="8" height="7" rx="3" fill="#c18d78"/><path d="M11 13Q16 4 21 13L20 17H12Z" fill="#a65c4f"/><rect x="9" y="27" width="6" height="4" fill="#3e3029"/><rect x="17" y="27" width="6" height="4" fill="#3e3029"/><rect x="13" y="19" width="6" height="3" fill="#d5b36d"/><rect x="20" y="11" width="3" height="9" fill="#d5b36d"/><circle cx="21.5" cy="10" r="2" fill="#d5b36d"/></g></svg>